<svg width="48" height="48" viewBox="0 0 48 48" fill="none" xmlns="http://www.w3.org/2000/svg">
<path d="M28.8583 37.6402C28.4783 37.6402 28.0983 37.5002 27.7983 37.2002C27.2183 36.6202 27.2183 35.6602 27.7983 35.0802L38.8783 24.0002L27.7983 12.9202C27.2183 12.3402 27.2183 11.3802 27.7983 10.8002C28.3783 10.2202 29.3383 10.2202 29.9183 10.8002L42.0583 22.9402C42.6383 23.5202 42.6383 24.4802 42.0583 25.0602L29.9183 37.2002C29.6183 37.5002 29.2383 37.6402 28.8583 37.6402Z" fill="white"/>
<path d="M40.66 25.5H7C6.18 25.5 5.5 24.82 5.5 24C5.5 23.18 6.18 22.5 7 22.5H40.66C41.48 22.5 42.16 23.18 42.16 24C42.16 24.82 41.48 25.5 40.66 25.5Z" fill="white"/>
</svg>
