<svg width="25" height="24" viewBox="0 0 25 24" fill="none" xmlns="http://www.w3.org/2000/svg">
<path d="M14.9398 7.24988C14.7498 7.24988 14.5598 7.17988 14.4098 7.02988L12.3798 4.99988L10.3498 7.02988C10.0598 7.31988 9.57977 7.31988 9.28977 7.02988C8.99977 6.73988 8.99977 6.25988 9.28977 5.96988L11.8498 3.40988C12.1398 3.11988 12.6198 3.11988 12.9098 3.40988L15.4698 5.96988C15.7598 6.25988 15.7598 6.73988 15.4698 7.02988C15.3198 7.17988 15.1298 7.24988 14.9398 7.24988Z" fill="#9CA3AF"/>
<path d="M12.3809 14.9298C11.9709 14.9298 11.6309 14.5898 11.6309 14.1798V4.00977C11.6309 3.59977 11.9709 3.25977 12.3809 3.25977C12.7909 3.25977 13.1309 3.59977 13.1309 4.00977V14.1798C13.1309 14.5998 12.7909 14.9298 12.3809 14.9298Z" fill="#9CA3AF"/>
<path d="M12.5 20.75C7.35 20.75 3.75 17.15 3.75 12C3.75 11.59 4.09 11.25 4.5 11.25C4.91 11.25 5.25 11.59 5.25 12C5.25 16.27 8.23 19.25 12.5 19.25C16.77 19.25 19.75 16.27 19.75 12C19.75 11.59 20.09 11.25 20.5 11.25C20.91 11.25 21.25 11.59 21.25 12C21.25 17.15 17.65 20.75 12.5 20.75Z" fill="#9CA3AF"/>
</svg>
