<svg width="16" height="16" viewBox="0 0 16 16" fill="none" xmlns="http://www.w3.org/2000/svg">
<path d="M13.2693 3.33372L9.26927 1.00039C8.46927 0.533724 7.46927 0.533724 6.66927 1.00039L2.73594 3.33372C1.86927 3.80039 1.33594 4.80039 1.33594 5.80039V10.2004C1.33594 11.2004 1.86927 12.2004 2.73594 12.6671L6.73594 15.0004C7.13594 15.2004 7.53594 15.3337 8.0026 15.3337C8.46927 15.3337 8.86927 15.2004 9.26927 15.0004L13.2693 12.6671C14.1359 12.2004 14.6693 11.2004 14.6693 10.2004V5.80039C14.6693 4.80039 14.1359 3.80039 13.2693 3.33372Z" fill="white" fill-opacity="0.75"/>
<path d="M13.2679 5.06702C13.0679 4.80035 12.6679 4.66702 12.3346 4.80035L8.00127 7.20035L3.66793 4.80035C3.33459 4.66702 2.93459 4.80035 2.73459 5.06702C2.53459 5.33369 2.66793 5.80035 3.00126 6.00035L7.3346 8.33369V13.2004C7.3346 13.6004 7.60127 13.867 8.00127 13.867C8.40127 13.867 8.66794 13.6004 8.66794 13.2004V8.33369L13.0013 6.00035C13.3346 5.80035 13.4013 5.40035 13.2679 5.06702Z" fill="#524B47"/>
</svg>
