<svg width="17" height="16" viewBox="0 0 17 16" fill="none" xmlns="http://www.w3.org/2000/svg">
<path d="M6.50065 14.6668H10.5007C13.834 14.6668 15.1673 13.3335 15.1673 10.0002V6.00016C15.1673 2.66683 13.834 1.3335 10.5007 1.3335H6.50065C3.16732 1.3335 1.83398 2.66683 1.83398 6.00016V10.0002C1.83398 13.3335 3.16732 14.6668 6.50065 14.6668Z" stroke="white" stroke-linecap="round" stroke-linejoin="round"/>
<path d="M6.49935 6.66667C7.23573 6.66667 7.83268 6.06971 7.83268 5.33333C7.83268 4.59695 7.23573 4 6.49935 4C5.76297 4 5.16602 4.59695 5.16602 5.33333C5.16602 6.06971 5.76297 6.66667 6.49935 6.66667Z" stroke="white" stroke-linecap="round" stroke-linejoin="round"/>
<path d="M2.28125 12.633L5.56792 10.4264C6.09458 10.073 6.85458 10.113 7.32792 10.5197L7.54792 10.713C8.06792 11.1597 8.90792 11.1597 9.42792 10.713L12.2012 8.33305C12.7212 7.88638 13.5613 7.88638 14.0813 8.33305L15.1679 9.26638" stroke="white" stroke-linecap="round" stroke-linejoin="round"/>
</svg>
