<svg width="17" height="16" viewBox="0 0 17 16" fill="none" xmlns="http://www.w3.org/2000/svg">
<path d="M6.90746 3.20117L7.99766 6.14737C8.4028 7.24225 9.26604 8.10549 10.3609 8.51063L13.3071 9.60082L10.3609 10.691C9.26604 11.0962 8.4028 11.9594 7.99766 13.0543L6.90746 16.0005L5.81727 13.0543C5.41213 11.9594 4.54889 11.0962 3.45401 10.691L0.507812 9.60082L3.45401 8.51063C4.54889 8.10549 5.41213 7.24225 5.81727 6.14737L6.90746 3.20117Z" fill="white"/>
<path d="M13.6142 0L14.0729 1.23954C14.2755 1.78698 14.7071 2.2186 15.2545 2.42117L16.4941 2.87984L15.2545 3.33851C14.7071 3.54109 14.2755 3.97271 14.0729 4.52015L13.6142 5.75969L13.1555 4.52015C12.953 3.97271 12.5214 3.54109 11.9739 3.33851L10.7344 2.87984L11.9739 2.42117C12.5214 2.2186 12.953 1.78698 13.1555 1.23954L13.6142 0Z" fill="white"/>
</svg>
