<svg width="16" height="16" viewBox="0 0 16 16" fill="none" xmlns="http://www.w3.org/2000/svg">
<path d="M7.91984 9.99309C7.79318 9.99309 7.66651 9.94642 7.56651 9.84642L5.85984 8.13975C5.66651 7.94642 5.66651 7.62642 5.85984 7.43309C6.05318 7.23975 6.37318 7.23975 6.56651 7.43309L7.91984 8.78642L9.27318 7.43309C9.46651 7.23975 9.78651 7.23975 9.97984 7.43309C10.1732 7.62642 10.1732 7.94642 9.97984 8.13975L8.27318 9.84642C8.17318 9.94642 8.04651 9.99309 7.91984 9.99309Z" fill="#404040"/>
<path d="M7.92188 9.94992C7.64854 9.94992 7.42188 9.72326 7.42188 9.44992V2.66992C7.42188 2.39659 7.64854 2.16992 7.92188 2.16992C8.19521 2.16992 8.42188 2.39659 8.42188 2.66992V9.44992C8.42188 9.72326 8.19521 9.94992 7.92188 9.94992Z" fill="#404040"/>
<path d="M7.99739 13.9564C4.56406 13.9564 2.16406 11.5564 2.16406 8.12305C2.16406 7.84971 2.39073 7.62305 2.66406 7.62305C2.9374 7.62305 3.16406 7.84971 3.16406 8.12305C3.16406 10.9697 5.15073 12.9564 7.99739 12.9564C10.8441 12.9564 12.8307 10.9697 12.8307 8.12305C12.8307 7.84971 13.0574 7.62305 13.3307 7.62305C13.6041 7.62305 13.8307 7.84971 13.8307 8.12305C13.8307 11.5564 11.4307 13.9564 7.99739 13.9564Z" fill="#404040"/>
</svg>
