<svg width="20" height="21" viewBox="0 0 20 21" fill="none" xmlns="http://www.w3.org/2000/svg">
<path d="M9.58268 18.6253C4.87435 18.6253 1.04102 14.792 1.04102 10.0837C1.04102 5.37533 4.87435 1.54199 9.58268 1.54199C14.291 1.54199 18.1243 5.37533 18.1243 10.0837C18.1243 14.792 14.291 18.6253 9.58268 18.6253ZM9.58268 2.79199C5.55768 2.79199 2.29102 6.06699 2.29102 10.0837C2.29102 14.1003 5.55768 17.3753 9.58268 17.3753C13.6077 17.3753 16.8743 14.1003 16.8743 10.0837C16.8743 6.06699 13.6077 2.79199 9.58268 2.79199Z" fill="#292D32"/>
<path d="M18.3345 19.4576C18.1762 19.4576 18.0178 19.3992 17.8928 19.2742L16.2262 17.6076C15.9845 17.3659 15.9845 16.9659 16.2262 16.7242C16.4678 16.4826 16.8678 16.4826 17.1095 16.7242L18.7762 18.3909C19.0178 18.6326 19.0178 19.0326 18.7762 19.2742C18.6512 19.3992 18.4928 19.4576 18.3345 19.4576Z" fill="#292D32"/>
</svg>
