<svg width="15" height="16" viewBox="0 0 15 16" fill="none" xmlns="http://www.w3.org/2000/svg">
<path d="M5.61152 3.79199L6.56745 6.37536C6.9227 7.3354 7.67963 8.09233 8.63967 8.44758L11.223 9.40351L8.63967 10.3594C7.67963 10.7147 6.9227 11.4716 6.56745 12.4317L5.61152 15.015L4.65559 12.4317C4.30034 11.4716 3.54341 10.7147 2.58337 10.3594L0 9.40351L2.58337 8.44758C3.54341 8.09233 4.30034 7.3354 4.65559 6.37536L5.61152 3.79199Z" fill="url(#paint0_linear_1477_24145)"/>
<path d="M11.4939 0.985352L11.8961 2.07224C12.0737 2.55226 12.4522 2.93073 12.9322 3.10835L14.0191 3.51053L12.9322 3.91272C12.4522 4.09034 12.0737 4.46881 11.8961 4.94883L11.4939 6.03572L11.0917 4.94883C10.9141 4.46881 10.5357 4.09034 10.0556 3.91272L8.96875 3.51053L10.0556 3.10835C10.5357 2.93073 10.9141 2.55226 11.0917 2.07224L11.4939 0.985352Z" fill="url(#paint1_linear_1477_24145)"/>
<defs>
<linearGradient id="paint0_linear_1477_24145" x1="1.87051" y1="3.79199" x2="11.223" y2="16.8855" gradientUnits="userSpaceOnUse">
<stop stop-color="#516CE0"/>
<stop offset="1" stop-color="#AAB9F7"/>
</linearGradient>
<linearGradient id="paint1_linear_1477_24145" x1="9.81048" y1="0.985352" x2="14.0191" y2="6.87744" gradientUnits="userSpaceOnUse">
<stop stop-color="#516CE0"/>
<stop offset="1" stop-color="#AAB9F7"/>
</linearGradient>
</defs>
</svg>
